<svg width="1000" height="1000" viewBox="0 0 1000 1000" fill="none" xmlns="http://www.w3.org/2000/svg">
<path d="M500.5 928C737.154 928 929 736.154 929 499.5C929 262.846 737.154 71 500.5 71C263.846 71 72 262.846 72 499.5C72 736.154 263.846 928 500.5 928Z" fill="white"/>
<path d="M500.48 928.49C737.305 928.49 929.29 736.505 929.29 499.68C929.29 262.855 737.305 70.87 500.48 70.87C263.655 70.87 71.67 262.855 71.67 499.68C71.67 736.505 263.655 928.49 500.48 928.49Z" stroke="#9B0E8E" stroke-width="6.5" stroke-miterlimit="10"/>
<path d="M188.06 545.65L214.35 539.12V353.91H183.79V343.25H214.35V321.49C214.35 306.12 218.04 292.33 225.43 280.15C232.82 267.96 243.39 258.39 257.15 251.43C270.91 244.47 287.06 240.99 305.6 240.99C320.66 240.99 333.63 243.24 344.49 247.74C355.35 252.24 363.54 258.18 369.04 265.58C374.54 272.98 377.3 280.74 377.3 288.86C377.3 298.73 374.33 306.63 368.39 312.58C362.45 318.53 354.55 321.5 344.71 321.5C340.65 321.5 336.6 321.21 332.54 320.63L327.33 319.32V251.96L323.43 251.09C322.27 250.81 320.97 250.51 319.53 250.22C318.08 249.94 316.35 249.79 314.33 249.79C304.5 249.79 296.99 254.92 291.79 265.18C286.59 275.44 283.99 294.15 283.99 321.31V343.25H353.63V353.91H283.99V539.1L310.28 545.64V552.18H188.05V545.65H188.06Z" fill="#9B0E8E"/>
<path d="M396.91 643.97C389.66 637.01 386.03 627.43 386.03 615.25C386.03 604.22 389 595.67 394.95 589.57C400.89 583.48 408.8 580.43 418.66 580.43C420.98 580.43 423.3 580.65 425.62 581.08C427.94 581.52 429.53 581.73 430.41 581.73L436.07 582.6V640.69C444.46 639.24 451.83 634.62 458.2 626.81C464.56 619 471.65 605.55 479.46 586.46L488.14 564.77L374.97 353.91H353.65V343.25H408.02C423.09 343.25 435.05 346.37 443.9 352.61C452.74 358.85 460.35 368.06 466.73 380.24L521.1 480.77L566.77 362.84L534.15 349.78V343.25H614.45V349.78L579.65 362.84L492.64 586.96C483.35 610.75 473.5 627.94 463.06 638.53C452.62 649.12 440.72 654.41 427.39 654.41C414.06 654.41 404.18 650.93 396.94 643.97H396.91Z" fill="#9B0E8E"/>
<path d="M691.92 539.07C686.39 533.27 681.6 526.73 677.53 519.48C675.49 525.87 672 531.67 667.06 536.9C656.01 548.51 639.87 554.32 618.66 554.32H614.43V260.57L588.14 254.04V247.33H644.83C670.99 247.33 684.07 260.39 684.07 286.52V345.3C688.72 341.53 693.23 338.63 697.59 336.59C708.06 330.79 720.27 327.88 734.22 327.88C763.58 327.88 786.91 337.83 804.21 357.71C821.5 377.6 830.16 406.12 830.16 443.27C830.16 467.95 826.24 488.92 818.39 506.19C810.54 523.47 799.93 536.53 786.56 545.38C773.18 554.23 757.92 558.66 740.77 558.66C721.29 558.66 705.01 552.13 691.93 539.07H691.92ZM746.52 521.43C752.76 506.78 755.88 480.74 755.88 443.31C755.88 405.88 752.47 377.31 745.65 362.8C738.83 348.3 729.18 341.04 716.71 341.04C709.16 341.04 701.48 343.94 693.64 349.74C691.31 351.48 688.13 354.38 684.07 358.44V508.58C686.68 515.26 689.87 521.06 693.64 525.99C702.34 537.6 712.2 543.4 723.23 543.4C732.51 543.4 740.27 536.08 746.51 521.42L746.52 521.43Z" fill="#9B0E8E"/>
<path d="M232.32 691.87V689.92H237.78V686.02C237.78 683.99 238.16 682.1 238.91 680.33C239.66 678.56 240.74 677.03 242.15 675.73C243.55 674.43 245.27 673.42 247.3 672.69C249.33 671.96 251.61 671.6 254.16 671.6C256.29 671.6 258.16 671.85 259.77 672.34C261.38 672.83 262.72 673.48 263.79 674.29C264.85 675.1 265.66 676 266.21 677.02C266.76 678.04 267.03 679.09 267.03 680.18C267.03 681.95 266.5 683.36 265.43 684.43C264.36 685.5 262.95 686.03 261.18 686.03C260.76 686.03 260.36 686.02 259.97 685.99C259.58 685.96 259.26 685.93 259 685.87C258.64 685.82 258.32 685.74 258.06 685.64V673.56C257.85 673.51 257.62 673.46 257.36 673.4C257.1 673.35 256.83 673.3 256.54 673.24C256.25 673.19 255.98 673.16 255.72 673.16C254.94 673.16 254.21 673.34 253.54 673.71C252.86 674.07 252.29 674.72 251.82 675.66C251.35 676.6 250.97 677.9 250.69 679.56C250.4 681.22 250.26 683.38 250.26 686.03V689.93H262.73V691.88H250.26V725.02L254.94 726.19V727.36H233.11V726.19L237.79 725.02V691.88H232.33L232.32 691.87Z" fill="black"/>
<path d="M277.54 688.36C282.22 688.36 284.56 690.7 284.56 695.38V725.01L289.24 726.18V727.35H267.41V726.18L272.09 725.01V690.71L267.41 689.54V688.37H277.55L277.54 688.36ZM271.69 678.61C271.69 677.73 271.87 676.88 272.24 676.08C272.6 675.28 273.08 674.57 273.68 673.98C274.28 673.38 274.98 672.9 275.78 672.54C276.59 672.18 277.43 671.99 278.31 671.99C279.19 671.99 280.04 672.17 280.84 672.54C281.65 672.9 282.35 673.38 282.94 673.98C283.54 674.58 284.02 675.28 284.38 676.08C284.74 676.89 284.93 677.73 284.93 678.61C284.93 679.49 284.75 680.34 284.38 681.14C284.02 681.95 283.53 682.65 282.94 683.24C282.34 683.84 281.64 684.32 280.84 684.68C280.03 685.04 279.19 685.23 278.31 685.23C277.43 685.23 276.58 685.05 275.78 684.68C274.97 684.32 274.27 683.84 273.68 683.24C273.08 682.64 272.6 681.94 272.24 681.14C271.88 680.33 271.69 679.49 271.69 678.61Z" fill="black"/>
<path d="M323.93 700.05C323.93 698.28 323.75 696.76 323.38 695.49C323.02 694.22 322.56 693.16 322.02 692.33C321.47 691.5 320.85 690.89 320.15 690.5C319.45 690.11 318.76 689.92 318.08 689.92C316.88 689.92 315.84 690.25 314.96 690.89C314.08 691.54 313.35 692.25 312.78 693.03C312.1 693.97 311.53 695.01 311.06 696.15V725L315.74 726.17V727.34H293.91V726.17L298.59 725V690.7L293.91 689.53V688.36H300.93C302.75 688.36 304.24 688.67 305.41 689.3C306.58 689.92 307.5 690.6 308.18 691.33C308.96 692.21 309.53 693.18 309.9 694.21C310.57 692.91 311.43 691.74 312.47 690.7C313.35 689.82 314.51 689.01 315.94 688.28C317.37 687.55 319.12 687.19 321.2 687.19C323.43 687.19 325.49 687.55 327.36 688.28C329.23 689.01 330.83 689.97 332.15 691.16C333.48 692.36 334.51 693.72 335.27 695.25C336.02 696.78 336.4 698.38 336.4 700.04V724.99L341.08 726.16V727.33H330.94C326.26 727.33 323.92 724.99 323.92 720.31V700.04L323.93 700.05Z" fill="black"/>
<path d="M377.33 672.76C382.01 672.76 384.35 675.1 384.35 679.78V725L389.03 726.17V727.34H382.01C380.14 727.34 378.63 727.04 377.49 726.44C376.35 725.84 375.44 725.18 374.76 724.45C373.98 723.57 373.41 722.58 373.04 721.49C372.36 722.84 371.51 724.01 370.47 725C369.59 725.88 368.42 726.69 366.96 727.42C365.5 728.15 363.76 728.51 361.74 728.51C359.5 728.51 357.41 728.07 355.46 727.18C353.51 726.3 351.82 725 350.39 723.28C348.96 721.57 347.83 719.42 347 716.85C346.17 714.28 345.75 711.28 345.75 707.85C345.75 704.42 346.17 701.42 347 698.85C347.83 696.28 349 694.13 350.51 692.42C352.02 690.71 353.82 689.41 355.93 688.52C358.04 687.64 360.36 687.19 362.91 687.19C364.26 687.19 365.49 687.35 366.61 687.66C367.73 687.97 368.68 688.34 369.46 688.75C370.4 689.22 371.2 689.74 371.88 690.31V675.11L367.2 673.94V672.77H377.34L377.33 672.76ZM371.88 692.65C371.31 692.08 370.71 691.56 370.09 691.09C369.52 690.67 368.89 690.31 368.22 690C367.54 689.69 366.82 689.53 366.04 689.53C365.05 689.53 364.13 689.78 363.27 690.27C362.41 690.76 361.67 691.67 361.05 693C360.43 694.33 359.93 696.18 359.57 698.57C359.21 700.96 359.02 704.05 359.02 707.85C359.02 711.65 359.2 714.56 359.57 716.89C359.93 719.23 360.39 721.06 360.93 722.39C361.48 723.72 362.1 724.61 362.8 725.08C363.5 725.55 364.19 725.78 364.87 725.78C366.07 725.78 367.09 725.46 367.95 724.81C368.81 724.16 369.52 723.45 370.09 722.67C370.76 721.73 371.36 720.7 371.88 719.55V692.65Z" fill="black"/>
<path d="M449.45 691.87L443.6 689.53V688.36H458.02V689.53L451.78 691.87L436.19 732.02C434.53 736.33 432.75 739.43 430.85 741.3C428.95 743.17 426.83 744.11 424.5 744.11C422.17 744.11 420.34 743.49 419.04 742.24C417.74 740.99 417.09 739.28 417.09 737.09C417.09 735.11 417.62 733.58 418.69 732.49C419.75 731.4 421.17 730.85 422.94 730.85C423.36 730.85 423.73 730.88 424.07 730.93C424.41 730.98 424.73 731.03 425.04 731.09C425.35 731.15 425.69 731.19 426.05 731.25V741.78C426.72 741.68 427.39 741.44 428.04 741.08C428.69 740.72 429.33 740.16 429.95 739.4C430.57 738.65 431.2 737.67 431.82 736.48C432.44 735.28 433.12 733.8 433.85 732.04L435.41 728.14L415.14 690.72L411.24 689.55V688.38H420.99C422.44 688.38 423.72 688.55 424.81 688.89C425.9 689.23 426.85 689.68 427.66 690.26C428.47 690.83 429.18 691.52 429.8 692.33C430.42 693.14 430.99 694.03 431.52 695.02L441.27 713.03L449.46 691.9L449.45 691.87Z" fill="black"/>
<path d="M478.69 687.19C481.91 687.19 484.8 687.66 487.34 688.59C489.89 689.53 492.06 690.89 493.85 692.68C495.64 694.47 497.01 696.64 497.94 699.19C498.88 701.74 499.34 704.62 499.34 707.84C499.34 711.06 498.87 713.95 497.94 716.49C497.01 719.03 495.64 721.21 493.85 723C492.06 724.79 489.89 726.16 487.34 727.09C484.79 728.03 481.91 728.49 478.69 728.49C475.47 728.49 472.58 728.02 470.04 727.09C467.49 726.15 465.32 724.79 463.53 723C461.74 721.21 460.37 719.04 459.44 716.49C458.51 713.94 458.04 711.06 458.04 707.84C458.04 704.62 458.51 701.73 459.44 699.19C460.38 696.64 461.74 694.47 463.53 692.68C465.32 690.89 467.49 689.52 470.04 688.59C472.59 687.65 475.47 687.19 478.69 687.19ZM478.69 726.95C479.57 726.95 480.46 726.66 481.34 726.09C482.22 725.52 483.02 724.52 483.72 723.09C484.42 721.66 484.99 719.71 485.43 717.24C485.87 714.77 486.09 711.64 486.09 707.85C486.09 704.06 485.87 700.92 485.43 698.45C484.99 695.98 484.42 694.03 483.72 692.6C483.02 691.17 482.22 690.17 481.34 689.6C480.46 689.03 479.57 688.74 478.69 688.74C477.81 688.74 476.92 689.03 476.04 689.6C475.16 690.17 474.36 691.17 473.66 692.6C472.96 694.03 472.39 695.98 471.94 698.45C471.5 700.92 471.28 704.05 471.28 707.85C471.28 711.65 471.5 714.78 471.94 717.24C472.38 719.71 472.95 721.66 473.66 723.09C474.36 724.52 475.15 725.52 476.04 726.09C476.92 726.66 477.81 726.95 478.69 726.95Z" fill="black"/>
<path d="M514.55 688.36C519.23 688.36 521.57 690.7 521.57 695.38V715.65C521.57 717.42 521.75 718.94 522.12 720.21C522.48 721.48 522.94 722.54 523.48 723.37C524.03 724.2 524.65 724.81 525.35 725.2C526.05 725.59 526.74 725.78 527.42 725.78C528.62 725.78 529.64 725.46 530.5 724.81C531.36 724.16 532.07 723.45 532.64 722.67C533.31 721.73 533.91 720.7 534.43 719.55V690.7L529.75 689.53V688.36H551.58V689.53L546.9 690.7V727.73H546.12C543.83 727.73 542 727.4 540.62 726.76C539.24 726.11 538.19 725.4 537.46 724.62C536.58 723.68 535.95 722.65 535.59 721.5C534.91 722.85 534.06 724.02 533.02 725.01C532.14 725.89 530.97 726.7 529.51 727.43C528.05 728.16 526.31 728.52 524.29 728.52C522.05 728.52 520 728.16 518.13 727.43C516.26 726.7 514.66 725.74 513.34 724.55C512.01 723.35 510.97 721.99 510.22 720.46C509.47 718.93 509.09 717.33 509.09 715.67V690.72L504.41 689.55V688.38H514.55V688.36Z" fill="black"/>
<path d="M583.16 689.92C581.6 689.92 580.21 690.25 578.99 690.89C577.77 691.54 576.74 692.25 575.91 693.03C574.97 693.97 574.14 695.01 573.42 696.15V725L578.1 726.17V727.34H556.27V726.17L560.95 725V690.7L556.27 689.53V688.36H563.29C565.11 688.36 566.6 688.67 567.77 689.3C568.94 689.92 569.86 690.6 570.54 691.33C571.32 692.21 571.89 693.18 572.25 694.21C573.03 693.07 573.99 692.03 575.13 691.09C576.12 690.31 577.33 689.6 578.75 688.95C580.18 688.3 581.88 687.98 583.86 687.98C586.67 687.98 588.74 688.63 590.1 689.93C591.45 691.23 592.13 693.05 592.13 695.39C592.13 697.16 591.6 698.57 590.53 699.64C589.46 700.71 588.05 701.24 586.28 701.24C585.86 701.24 585.46 701.23 585.07 701.2C584.68 701.17 584.36 701.14 584.1 701.08C583.74 701.03 583.42 700.95 583.16 700.85V689.93V689.92Z" fill="black"/>
<path d="M626.04 672.76C630.72 672.76 633.06 675.1 633.06 679.78V690.31C633.73 689.74 634.54 689.22 635.48 688.75C636.26 688.33 637.21 687.97 638.33 687.66C639.45 687.35 640.68 687.19 642.03 687.19C644.58 687.19 646.9 687.63 649.01 688.52C651.11 689.4 652.92 690.7 654.43 692.42C655.94 694.13 657.11 696.28 657.94 698.85C658.77 701.42 659.19 704.42 659.19 707.85C659.19 711.28 658.77 714.28 657.94 716.85C657.11 719.42 655.98 721.57 654.55 723.28C653.12 725 651.43 726.3 649.48 727.18C647.53 728.06 645.44 728.51 643.2 728.51C641.12 728.51 639.37 728.15 637.94 727.42C636.51 726.69 635.35 725.89 634.47 725C633.43 724.01 632.57 722.84 631.9 721.49C631.54 722.63 630.91 723.67 630.03 724.61C629.3 725.39 628.24 726.1 626.83 726.75C625.42 727.4 623.61 727.72 621.37 727.72H620.59V675.09L615.91 673.92V672.75H626.05L626.04 672.76ZM633.06 719.54C633.53 720.68 634.1 721.72 634.77 722.66C635.34 723.44 636.07 724.15 636.95 724.8C637.83 725.45 638.87 725.77 640.07 725.77C640.74 725.77 641.43 725.54 642.14 725.07C642.84 724.6 643.47 723.71 644.01 722.38C644.56 721.05 645.01 719.22 645.37 716.88C645.73 714.54 645.92 711.53 645.92 707.84C645.92 704.15 645.74 700.95 645.37 698.56C645.01 696.17 644.51 694.31 643.89 692.99C643.27 691.66 642.53 690.76 641.67 690.26C640.81 689.76 639.89 689.52 638.9 689.52C638.12 689.52 637.38 689.68 636.68 689.99C635.98 690.3 635.34 690.67 634.77 691.08C634.15 691.55 633.57 692.07 633.06 692.64V719.54Z" fill="black"/>
<path d="M675.55 672.76C680.23 672.76 682.57 675.1 682.57 679.78V725L687.25 726.17V727.34H665.42V726.17L670.1 725V675.1L665.42 673.93V672.76H675.56H675.55Z" fill="black"/>
<path d="M702.06 688.36C706.74 688.36 709.08 690.7 709.08 695.38V725.01L713.76 726.18V727.35H691.93V726.18L696.61 725.01V690.71L691.93 689.54V688.37H702.07L702.06 688.36ZM696.21 678.61C696.21 677.73 696.39 676.88 696.75 676.08C697.11 675.28 697.59 674.57 698.19 673.98C698.79 673.39 699.49 672.9 700.3 672.54C701.11 672.18 701.95 671.99 702.83 671.99C703.71 671.99 704.56 672.17 705.36 672.54C706.17 672.9 706.87 673.38 707.47 673.98C708.07 674.58 708.55 675.28 708.91 676.08C709.27 676.89 709.46 677.73 709.46 678.61C709.46 679.49 709.28 680.34 708.91 681.14C708.55 681.95 708.06 682.65 707.47 683.24C706.88 683.83 706.17 684.32 705.36 684.68C704.55 685.04 703.71 685.23 702.83 685.23C701.95 685.23 701.1 685.05 700.3 684.68C699.49 684.32 698.79 683.84 698.19 683.24C697.59 682.64 697.11 681.94 696.75 681.14C696.39 680.33 696.21 679.49 696.21 678.61Z" fill="black"/>
<path d="M736.75 728.51C734.88 728.51 733.23 728.3 731.8 727.89C730.37 727.47 729.13 726.98 728.1 726.41C726.9 725.79 725.89 725.06 725.06 724.23C724.64 724.8 724.19 725.32 723.69 725.79C723.2 726.26 722.74 726.62 722.33 726.88C721.81 727.24 721.29 727.53 720.77 727.74H718.82V714.49H721.94C722.67 716.78 723.66 718.8 724.9 720.57C725.94 722.08 727.29 723.45 728.95 724.7C730.61 725.95 732.69 726.57 735.19 726.57C737.37 726.57 739.02 726.02 740.14 724.93C741.26 723.84 741.82 722.31 741.82 720.33C741.82 718.87 741.26 717.63 740.14 716.59C739.02 715.55 737.63 714.56 735.97 713.63C734.31 712.69 732.49 711.75 730.51 710.78C728.53 709.82 726.72 708.74 725.05 707.54C723.39 706.35 722 704.97 720.88 703.41C719.76 701.85 719.2 699.95 719.2 697.72C719.2 696.26 719.5 694.9 720.1 693.63C720.7 692.36 721.66 691.24 722.98 690.28C724.3 689.32 726.01 688.56 728.09 688.02C730.17 687.47 732.66 687.2 735.58 687.2C737.14 687.2 738.57 687.42 739.87 687.86C741.17 688.3 742.29 688.81 743.22 689.38C744.31 690 745.3 690.71 746.18 691.49C746.6 690.92 747.05 690.41 747.55 689.97C748.04 689.53 748.5 689.15 748.91 688.84C749.43 688.53 749.95 688.24 750.47 687.98H752.42V701.23H749.3C748.52 699 747.56 696.99 746.42 695.23C745.43 693.72 744.18 692.33 742.68 691.06C741.17 689.79 739.33 689.15 737.14 689.15C735.79 689.15 734.61 689.67 733.59 690.71C732.58 691.75 732.07 693.05 732.07 694.61C732.07 696.17 732.63 697.52 733.75 698.66C734.87 699.8 736.26 700.87 737.92 701.86C739.58 702.85 741.4 703.81 743.38 704.74C745.35 705.68 747.17 706.73 748.84 707.9C750.5 709.07 751.89 710.39 753.01 711.88C754.13 713.36 754.69 715.14 754.69 717.22C754.69 718.88 754.38 720.4 753.75 721.78C753.13 723.16 752.11 724.35 750.71 725.37C749.31 726.39 747.46 727.16 745.17 727.71C742.88 728.26 740.08 728.53 736.75 728.53V728.51Z" fill="black"/>
<path d="M778.85 728.51C776.98 728.51 775.33 728.3 773.9 727.89C772.47 727.47 771.23 726.98 770.2 726.41C769 725.79 767.99 725.06 767.16 724.23C766.74 724.8 766.29 725.32 765.79 725.79C765.29 726.26 764.84 726.62 764.43 726.88C763.91 727.24 763.39 727.53 762.87 727.74H760.92V714.49H764.04C764.77 716.78 765.76 718.8 767 720.57C768.04 722.08 769.39 723.45 771.05 724.7C772.71 725.95 774.79 726.57 777.29 726.57C779.47 726.57 781.12 726.02 782.24 724.93C783.36 723.84 783.92 722.31 783.92 720.33C783.92 718.87 783.36 717.63 782.24 716.59C781.12 715.55 779.73 714.56 778.07 713.63C776.41 712.69 774.59 711.75 772.61 710.78C770.63 709.82 768.82 708.74 767.15 707.54C765.49 706.35 764.1 704.97 762.98 703.41C761.86 701.85 761.3 699.95 761.3 697.72C761.3 696.26 761.6 694.9 762.2 693.63C762.8 692.36 763.76 691.24 765.08 690.28C766.4 689.32 768.11 688.56 770.19 688.02C772.27 687.47 774.76 687.2 777.68 687.2C779.24 687.2 780.67 687.42 781.97 687.86C783.27 688.3 784.39 688.81 785.32 689.38C786.41 690 787.4 690.71 788.28 691.49C788.7 690.92 789.15 690.41 789.65 689.97C790.14 689.53 790.6 689.15 791.01 688.84C791.53 688.53 792.05 688.24 792.57 687.98H794.52V701.23H791.4C790.62 699 789.66 696.99 788.52 695.23C787.53 693.72 786.28 692.33 784.78 691.06C783.27 689.79 781.43 689.15 779.24 689.15C777.89 689.15 776.71 689.67 775.69 690.71C774.68 691.75 774.17 693.05 774.17 694.61C774.17 696.17 774.73 697.52 775.85 698.66C776.97 699.8 778.36 700.87 780.02 701.86C781.68 702.85 783.5 703.81 785.48 704.74C787.45 705.68 789.27 706.73 790.94 707.9C792.6 709.07 793.99 710.39 795.11 711.88C796.23 713.36 796.79 715.14 796.79 717.22C796.79 718.88 796.48 720.4 795.85 721.78C795.23 723.16 794.21 724.35 792.81 725.37C791.41 726.39 789.56 727.16 787.27 727.71C784.98 728.26 782.18 728.53 778.85 728.53V728.51Z" fill="black"/>
</svg>
