<svg width="846" height="655" viewBox="0 0 846 655" fill="none" xmlns="http://www.w3.org/2000/svg">
<path d="M5.5849 398.476L39.9706 389.935V147.692H0V133.75H39.9706V105.289C39.9706 85.1859 44.7968 67.1495 54.4625 51.2188C64.1281 35.275 77.953 22.7581 95.9502 13.6548C113.947 4.5516 135.071 0 159.32 0C179.017 0 195.981 2.94286 210.185 8.82857C224.39 14.7143 235.102 22.4834 242.295 32.1621C249.489 41.8409 253.099 51.9905 253.099 62.6109C253.099 75.5203 249.214 85.853 241.445 93.6352C233.676 101.417 223.343 105.302 210.473 105.302C205.163 105.302 199.866 104.923 194.556 104.164L187.741 102.451V14.3481L182.64 13.2102C181.123 12.8439 179.423 12.4516 177.539 12.0723C175.643 11.706 173.38 11.5098 170.738 11.5098C157.881 11.5098 148.058 18.2195 141.257 31.639C134.456 45.0584 131.055 69.5299 131.055 105.053V133.75H222.14V147.692H131.055V389.909L165.441 398.463V407.017H5.57182V398.476H5.5849Z" fill="#9B0E8E"/>
<path d="M278.748 527.073C269.265 517.97 264.517 505.44 264.517 489.509C264.517 475.083 268.402 463.9 276.184 455.921C283.953 447.956 294.299 443.967 307.195 443.967C310.23 443.967 313.264 444.254 316.298 444.817C319.333 445.392 321.413 445.667 322.564 445.667L329.966 446.805V522.783C340.94 520.886 350.58 514.844 358.911 504.629C367.23 494.414 376.503 476.822 386.718 451.854L398.071 423.484L250.051 147.693H222.166V133.75H293.279C312.989 133.75 328.632 137.831 340.208 145.993C351.77 154.154 361.723 166.2 370.068 182.131L441.18 313.618L500.914 159.373L458.249 142.291V133.75H563.276V142.291L517.76 159.373L403.956 452.508C391.806 483.623 378.922 506.107 365.268 519.958C351.613 533.809 336.048 540.728 318.614 540.728C301.179 540.728 288.256 536.176 278.787 527.073H278.748Z" fill="#9B0E8E"/>
<path d="M664.602 389.87C657.369 382.284 651.104 373.73 645.781 364.248C643.112 372.605 638.548 380.191 632.086 387.032C617.634 402.217 596.524 409.816 568.782 409.816H563.25V25.6098L528.864 17.069V8.29272H603.011C637.227 8.29272 654.334 25.3744 654.334 59.5508V136.431C660.416 131.5 666.315 127.707 672.018 125.039C685.712 117.453 701.682 113.647 719.927 113.647C758.328 113.647 788.843 126.661 811.47 152.663C834.084 178.678 845.411 215.98 845.411 264.57C845.411 296.85 840.284 324.277 830.017 346.865C819.749 369.466 805.872 386.548 788.385 398.123C770.885 409.699 750.926 415.493 728.495 415.493C703.016 415.493 681.723 406.952 664.615 389.87H664.602ZM736.015 366.798C744.177 347.637 748.257 313.578 748.257 264.622C748.257 215.666 743.797 178.298 734.877 159.32C725.957 140.355 713.336 130.859 697.026 130.859C687.151 130.859 677.106 134.652 666.851 142.239C663.804 144.514 659.645 148.307 654.334 153.618V349.991C657.748 358.728 661.921 366.314 666.851 372.762C678.231 387.948 691.127 395.534 705.553 395.534C717.691 395.534 727.841 385.959 736.002 366.785L736.015 366.798Z" fill="#9B0E8E"/>
<path d="M63.4742 586.673V584.123H70.6156V579.022C70.6156 576.367 71.1126 573.895 72.0935 571.58C73.0745 569.265 74.4871 567.264 76.3312 565.563C78.1624 563.863 80.412 562.542 83.0671 561.587C85.7222 560.632 88.7043 560.161 92.0396 560.161C94.8255 560.161 97.2713 560.489 99.3771 561.129C101.483 561.77 103.236 562.62 104.635 563.68C106.021 564.739 107.081 565.916 107.8 567.251C108.52 568.585 108.873 569.958 108.873 571.384C108.873 573.699 108.18 575.543 106.78 576.942C105.381 578.342 103.536 579.035 101.221 579.035C100.672 579.035 100.149 579.022 99.6387 578.983C99.1286 578.943 98.7101 578.904 98.37 578.826C97.8991 578.76 97.4806 578.656 97.1405 578.525V562.725C96.8659 562.66 96.565 562.594 96.225 562.516C95.8849 562.45 95.5318 562.385 95.1525 562.307C94.7732 562.241 94.42 562.202 94.08 562.202C93.0598 562.202 92.105 562.437 91.2286 562.921C90.3392 563.392 89.5937 564.242 88.979 565.472C88.3643 566.701 87.8673 568.402 87.501 570.573C87.1217 572.744 86.9386 575.569 86.9386 579.035V584.136H103.249V586.686H86.9386V630.032L93.0598 631.562V633.092H64.5075V631.562L70.6286 630.032V586.686H63.4873L63.4742 586.673Z" fill="black"/>
<path d="M122.619 582.084C128.74 582.084 131.801 585.144 131.801 591.265V630.02L137.922 631.55V633.08H109.37V631.55L115.491 630.02V585.157L109.37 583.627V582.097H122.632L122.619 582.084ZM114.968 569.331C114.968 568.18 115.203 567.069 115.687 566.022C116.158 564.976 116.786 564.047 117.57 563.276C118.355 562.491 119.271 561.863 120.317 561.392C121.376 560.921 122.475 560.673 123.626 560.673C124.777 560.673 125.889 560.908 126.935 561.392C127.995 561.863 128.91 562.491 129.682 563.276C130.467 564.06 131.094 564.976 131.565 566.022C132.036 567.082 132.285 568.18 132.285 569.331C132.285 570.482 132.049 571.594 131.565 572.64C131.094 573.7 130.454 574.615 129.682 575.387C128.897 576.172 127.982 576.8 126.935 577.27C125.876 577.741 124.777 577.99 123.626 577.99C122.475 577.99 121.363 577.754 120.317 577.27C119.258 576.8 118.342 576.172 117.57 575.387C116.786 574.602 116.158 573.687 115.687 572.64C115.216 571.581 114.968 570.482 114.968 569.331Z" fill="black"/>
<path d="M183.294 597.372C183.294 595.057 183.059 593.069 182.575 591.408C182.104 589.747 181.502 588.361 180.796 587.275C180.077 586.19 179.266 585.392 178.35 584.882C177.434 584.372 176.532 584.123 175.643 584.123C174.073 584.123 172.713 584.555 171.562 585.392C170.411 586.242 169.456 587.171 168.711 588.191C167.821 589.42 167.076 590.78 166.461 592.272V630.005L172.582 631.536V633.066H144.03V631.536L150.151 630.005V585.143L144.03 583.613V582.083H153.211C155.592 582.083 157.541 582.488 159.071 583.312C160.601 584.123 161.805 585.012 162.694 585.967C163.714 587.118 164.46 588.387 164.944 589.734C165.82 588.034 166.945 586.503 168.305 585.143C169.456 583.992 170.973 582.933 172.844 581.978C174.714 581.023 177.003 580.552 179.723 580.552C182.64 580.552 185.334 581.023 187.78 581.978C190.226 582.933 192.319 584.188 194.045 585.745C195.785 587.314 197.132 589.093 198.126 591.094C199.107 593.095 199.604 595.188 199.604 597.359V629.992L205.725 631.523V633.053H192.463C186.342 633.053 183.281 629.992 183.281 623.871V597.359L183.294 597.372Z" fill="black"/>
<path d="M253.138 561.679C259.26 561.679 262.32 564.739 262.32 570.86V630.005L268.441 631.535V633.066H259.26C256.814 633.066 254.839 632.673 253.348 631.889C251.857 631.104 250.666 630.241 249.777 629.286C248.757 628.135 248.011 626.84 247.527 625.414C246.638 627.18 245.526 628.71 244.166 630.005C243.015 631.156 241.485 632.216 239.575 633.17C237.665 634.125 235.39 634.596 232.748 634.596C229.818 634.596 227.084 634.021 224.534 632.856C221.983 631.706 219.773 630.005 217.903 627.756C216.032 625.519 214.554 622.707 213.469 619.345C212.383 615.984 211.834 612.06 211.834 607.574C211.834 603.088 212.383 599.164 213.469 595.803C214.554 592.441 216.085 589.629 218.06 587.393C220.035 585.156 222.389 583.456 225.149 582.292C227.908 581.141 230.943 580.552 234.278 580.552C236.044 580.552 237.652 580.761 239.117 581.167C240.582 581.572 241.825 582.056 242.845 582.592C244.074 583.207 245.121 583.887 246.01 584.633V564.752L239.889 563.222V561.692H253.151L253.138 561.679ZM246.01 587.693C245.265 586.948 244.48 586.268 243.669 585.653C242.923 585.104 242.099 584.633 241.223 584.227C240.334 583.822 239.392 583.613 238.372 583.613C237.077 583.613 235.874 583.94 234.749 584.581C233.624 585.221 232.656 586.412 231.845 588.151C231.034 589.891 230.38 592.31 229.909 595.436C229.439 598.562 229.19 602.604 229.19 607.574C229.19 612.544 229.426 616.35 229.909 619.398C230.38 622.458 230.982 624.852 231.688 626.592C232.408 628.331 233.218 629.495 234.134 630.11C235.05 630.725 235.952 631.025 236.841 631.025C238.411 631.025 239.745 630.607 240.87 629.757C241.995 628.907 242.923 627.978 243.669 626.958C244.545 625.728 245.33 624.381 246.01 622.877V587.693Z" fill="black"/>
<path d="M347.466 586.673L339.815 583.613V582.083H358.675V583.613L350.514 586.673L330.123 639.187C327.952 644.824 325.624 648.879 323.139 651.325C320.654 653.771 317.881 655 314.833 655C311.786 655 309.392 654.189 307.692 652.554C305.992 650.919 305.141 648.683 305.141 645.818C305.141 643.229 305.835 641.227 307.234 639.802C308.621 638.376 310.478 637.657 312.793 637.657C313.342 637.657 313.826 637.696 314.271 637.761C314.716 637.827 315.134 637.892 315.54 637.971C315.945 638.049 316.39 638.101 316.861 638.18V651.953C317.737 651.822 318.613 651.508 319.463 651.037C320.314 650.566 321.151 649.834 321.962 648.84C322.772 647.859 323.596 646.577 324.407 645.02C325.218 643.451 326.108 641.515 327.062 639.213L329.103 634.112L302.591 585.169L297.49 583.639V582.109H310.242C312.139 582.109 313.813 582.331 315.239 582.776C316.664 583.22 317.907 583.809 318.966 584.568C320.026 585.313 320.954 586.216 321.765 587.275C322.576 588.334 323.322 589.499 324.015 590.793L336.767 614.349L347.479 586.713L347.466 586.673Z" fill="black"/>
<path d="M385.71 580.552C389.922 580.552 393.702 581.167 397.024 582.384C400.359 583.613 403.198 585.392 405.539 587.733C407.88 590.074 409.672 592.912 410.888 596.248C412.118 599.583 412.719 603.35 412.719 607.561C412.719 611.773 412.105 615.553 410.888 618.875C409.672 622.197 407.88 625.048 405.539 627.39C403.198 629.731 400.359 631.523 397.024 632.739C393.689 633.969 389.922 634.57 385.71 634.57C381.499 634.57 377.719 633.955 374.397 632.739C371.062 631.51 368.223 629.731 365.882 627.39C363.541 625.048 361.749 622.21 360.533 618.875C359.316 615.54 358.702 611.773 358.702 607.561C358.702 603.35 359.316 599.57 360.533 596.248C361.762 592.912 363.541 590.074 365.882 587.733C368.223 585.392 371.062 583.6 374.397 582.384C377.732 581.154 381.499 580.552 385.71 580.552ZM385.71 632.556C386.861 632.556 388.025 632.177 389.176 631.431C390.327 630.686 391.374 629.378 392.289 627.507C393.205 625.637 393.95 623.086 394.526 619.856C395.101 616.625 395.389 612.531 395.389 607.574C395.389 602.617 395.101 598.51 394.526 595.28C393.95 592.049 393.205 589.499 392.289 587.628C391.374 585.758 390.327 584.45 389.176 583.704C388.025 582.959 386.861 582.58 385.71 582.58C384.559 582.58 383.395 582.959 382.244 583.704C381.093 584.45 380.047 585.758 379.132 587.628C378.216 589.499 377.47 592.049 376.882 595.28C376.306 598.51 376.019 602.604 376.019 607.574C376.019 612.544 376.306 616.638 376.882 619.856C377.457 623.086 378.203 625.637 379.132 627.507C380.047 629.378 381.08 630.686 382.244 631.431C383.395 632.177 384.559 632.556 385.71 632.556Z" fill="black"/>
<path d="M432.613 582.083C438.735 582.083 441.795 585.143 441.795 591.264V617.776C441.795 620.091 442.031 622.079 442.515 623.74C442.985 625.401 443.587 626.788 444.293 627.873C445.013 628.959 445.824 629.757 446.739 630.267C447.655 630.777 448.557 631.026 449.447 631.026C451.016 631.026 452.35 630.607 453.475 629.757C454.6 628.907 455.529 627.978 456.274 626.958C457.15 625.728 457.935 624.381 458.615 622.877V585.143L452.494 583.613V582.083H481.046V583.613L474.925 585.143V633.576H473.905C470.91 633.576 468.516 633.144 466.711 632.307C464.906 631.457 463.533 630.529 462.578 629.508C461.427 628.279 460.603 626.932 460.132 625.428C459.243 627.193 458.131 628.724 456.771 630.018C455.62 631.169 454.09 632.229 452.18 633.184C450.271 634.138 447.995 634.609 445.353 634.609C442.423 634.609 439.742 634.138 437.296 633.184C434.85 632.229 432.757 630.973 431.031 629.417C429.291 627.847 427.931 626.068 426.95 624.067C425.969 622.066 425.472 619.973 425.472 617.802V585.169L419.351 583.639V582.109H432.613V582.083Z" fill="black"/>
<path d="M522.351 584.123C520.31 584.123 518.492 584.555 516.897 585.392C515.301 586.242 513.954 587.17 512.868 588.191C511.639 589.42 510.553 590.78 509.611 592.271V630.005L515.733 631.536V633.066H487.18V631.536L493.301 630.005V585.143L487.18 583.613V582.082H496.362C498.742 582.082 500.691 582.488 502.222 583.312C503.752 584.123 504.955 585.012 505.845 585.967C506.865 587.118 507.61 588.387 508.081 589.734C509.101 588.243 510.357 586.883 511.848 585.653C513.143 584.633 514.725 583.704 516.583 582.854C518.453 582.004 520.677 581.585 523.266 581.585C526.942 581.585 529.649 582.436 531.428 584.136C533.193 585.836 534.083 588.217 534.083 591.277C534.083 593.592 533.39 595.437 531.99 596.836C530.591 598.236 528.747 598.929 526.431 598.929C525.882 598.929 525.359 598.916 524.849 598.876C524.339 598.837 523.92 598.798 523.58 598.719C523.109 598.654 522.691 598.549 522.351 598.419V584.136V584.123Z" fill="black"/>
<path d="M578.435 561.679C584.556 561.679 587.617 564.739 587.617 570.86V584.633C588.493 583.887 589.552 583.207 590.782 582.593C591.802 582.043 593.045 581.572 594.51 581.167C595.974 580.761 597.583 580.552 599.349 580.552C602.684 580.552 605.719 581.128 608.478 582.292C611.225 583.443 613.592 585.143 615.567 587.393C617.542 589.629 619.073 592.441 620.158 595.803C621.244 599.164 621.793 603.088 621.793 607.574C621.793 612.06 621.244 615.984 620.158 619.346C619.073 622.707 617.595 625.519 615.724 627.756C613.854 630.005 611.644 631.706 609.093 632.857C606.543 634.008 603.809 634.596 600.879 634.596C598.159 634.596 595.87 634.125 593.999 633.171C592.129 632.216 590.612 631.169 589.461 630.005C588.101 628.71 586.976 627.18 586.1 625.414C585.629 626.906 584.805 628.266 583.654 629.495C582.699 630.515 581.313 631.444 579.468 632.294C577.624 633.144 575.257 633.563 572.327 633.563H571.307V564.726L565.186 563.196V561.666H578.448L578.435 561.679ZM587.617 622.864C588.231 624.355 588.977 625.715 589.853 626.945C590.599 627.965 591.554 628.894 592.705 629.744C593.856 630.594 595.216 631.012 596.785 631.012C597.662 631.012 598.564 630.712 599.493 630.097C600.408 629.482 601.232 628.318 601.939 626.579C602.658 624.839 603.247 622.445 603.717 619.385C604.188 616.324 604.437 612.387 604.437 607.561C604.437 602.735 604.201 598.549 603.717 595.423C603.247 592.298 602.593 589.865 601.782 588.138C600.971 586.399 600.003 585.222 598.878 584.568C597.753 583.914 596.55 583.6 595.255 583.6C594.235 583.6 593.267 583.809 592.351 584.214C591.436 584.62 590.599 585.104 589.853 585.64C589.042 586.255 588.284 586.935 587.617 587.681V622.864Z" fill="black"/>
<path d="M643.191 561.679C649.312 561.679 652.373 564.739 652.373 570.86V630.005L658.494 631.535V633.066H629.942V631.535L636.063 630.005V564.739L629.942 563.209V561.679H643.204H643.191Z" fill="black"/>
<path d="M677.864 582.084C683.985 582.084 687.046 585.144 687.046 591.265V630.02L693.167 631.55V633.08H664.615V631.55L670.736 630.02V585.157L664.615 583.627V582.097H677.877L677.864 582.084ZM670.213 569.331C670.213 568.18 670.448 567.069 670.919 566.022C671.39 564.976 672.018 564.047 672.803 563.276C673.587 562.504 674.503 561.863 675.562 561.392C676.622 560.921 677.72 560.673 678.871 560.673C680.022 560.673 681.134 560.908 682.18 561.392C683.24 561.863 684.155 562.491 684.94 563.276C685.725 564.06 686.353 564.976 686.824 566.022C687.294 567.082 687.543 568.18 687.543 569.331C687.543 570.482 687.308 571.594 686.824 572.64C686.353 573.7 685.712 574.615 684.94 575.387C684.168 576.159 683.24 576.8 682.18 577.27C681.121 577.741 680.022 577.99 678.871 577.99C677.72 577.99 676.609 577.754 675.562 577.27C674.503 576.8 673.587 576.172 672.803 575.387C672.018 574.602 671.39 573.687 670.919 572.64C670.448 571.581 670.213 570.482 670.213 569.331Z" fill="black"/>
<path d="M723.237 634.596C720.791 634.596 718.633 634.322 716.763 633.785C714.892 633.236 713.271 632.595 711.923 631.849C710.354 631.039 709.033 630.084 707.947 628.998C707.398 629.744 706.809 630.424 706.155 631.039C705.515 631.653 704.913 632.124 704.377 632.464C703.697 632.935 703.016 633.314 702.336 633.589H699.786V616.259H703.867C704.821 619.254 706.116 621.896 707.738 624.211C709.098 626.186 710.864 627.978 713.035 629.613C715.206 631.248 717.927 632.059 721.197 632.059C724.048 632.059 726.206 631.339 727.671 629.914C729.136 628.488 729.868 626.487 729.868 623.897C729.868 621.988 729.136 620.366 727.671 619.006C726.206 617.645 724.388 616.35 722.217 615.134C720.046 613.905 717.665 612.675 715.076 611.406C712.486 610.151 710.118 608.738 707.934 607.169C705.763 605.612 703.945 603.807 702.48 601.767C701.015 599.727 700.283 597.241 700.283 594.325C700.283 592.415 700.675 590.636 701.46 588.975C702.245 587.314 703.5 585.849 705.227 584.594C706.953 583.338 709.19 582.344 711.91 581.638C714.631 580.918 717.888 580.565 721.707 580.565C723.747 580.565 725.618 580.853 727.318 581.429C729.018 582.004 730.483 582.671 731.699 583.417C733.125 584.228 734.42 585.156 735.571 586.176C736.12 585.431 736.709 584.764 737.363 584.188C738.004 583.613 738.605 583.116 739.142 582.71C739.822 582.305 740.502 581.926 741.182 581.585H743.732V598.916H739.652C738.631 595.999 737.376 593.37 735.885 591.068C734.59 589.093 732.955 587.275 730.993 585.614C729.018 583.953 726.612 583.116 723.747 583.116C721.981 583.116 720.438 583.796 719.104 585.156C717.783 586.516 717.116 588.217 717.116 590.257C717.116 592.297 717.848 594.063 719.313 595.554C720.778 597.045 722.596 598.445 724.767 599.74C726.939 601.034 729.319 602.29 731.909 603.506C734.485 604.736 736.866 606.109 739.05 607.64C741.221 609.17 743.039 610.896 744.504 612.845C745.969 614.781 746.701 617.109 746.701 619.83C746.701 622.001 746.296 623.989 745.472 625.794C744.661 627.599 743.327 629.155 741.496 630.489C739.665 631.823 737.245 632.83 734.25 633.55C731.255 634.269 727.592 634.622 723.237 634.622V634.596Z" fill="black"/>
<path d="M778.301 634.596C775.855 634.596 773.697 634.322 771.827 633.785C769.957 633.236 768.335 632.595 766.988 631.849C765.418 631.039 764.097 630.084 763.011 628.998C762.462 629.744 761.873 630.424 761.219 631.039C760.566 631.653 759.977 632.124 759.441 632.464C758.761 632.935 758.08 633.314 757.4 633.589H754.85V616.259H758.931C759.885 619.254 761.18 621.896 762.802 624.211C764.162 626.186 765.928 627.978 768.099 629.613C770.27 631.248 772.991 632.059 776.261 632.059C779.112 632.059 781.27 631.339 782.735 629.914C784.2 628.488 784.932 626.487 784.932 623.897C784.932 621.988 784.2 620.366 782.735 619.006C781.27 617.645 779.452 616.35 777.281 615.134C775.11 613.905 772.729 612.675 770.14 611.406C767.55 610.151 765.183 608.738 762.998 607.169C760.827 605.612 759.009 603.807 757.544 601.767C756.079 599.727 755.347 597.241 755.347 594.325C755.347 592.415 755.739 590.636 756.524 588.975C757.309 587.314 758.564 585.849 760.291 584.594C762.017 583.338 764.254 582.344 766.974 581.638C769.695 580.918 772.952 580.565 776.771 580.565C778.811 580.565 780.682 580.853 782.382 581.429C784.082 582.004 785.547 582.671 786.764 583.417C788.189 584.228 789.484 585.156 790.635 586.176C791.184 585.431 791.773 584.764 792.427 584.188C793.068 583.613 793.669 583.116 794.206 582.71C794.886 582.305 795.566 581.926 796.246 581.585H798.797V598.916H794.716C793.696 595.999 792.44 593.37 790.949 591.068C789.654 589.093 788.019 587.275 786.057 585.614C784.082 583.953 781.676 583.116 778.811 583.116C777.046 583.116 775.502 583.796 774.168 585.156C772.847 586.516 772.18 588.217 772.18 590.257C772.18 592.297 772.912 594.063 774.377 595.554C775.842 597.045 777.66 598.445 779.831 599.74C782.003 601.034 784.383 602.29 786.973 603.506C789.549 604.736 791.93 606.109 794.114 607.64C796.285 609.17 798.103 610.896 799.568 612.845C801.033 614.781 801.766 617.109 801.766 619.83C801.766 622.001 801.36 623.989 800.536 625.794C799.725 627.599 798.391 629.155 796.56 630.489C794.729 631.823 792.309 632.83 789.314 633.55C786.319 634.269 782.657 634.622 778.301 634.622V634.596Z" fill="black"/>
</svg>
